<svg xmlns="http://www.w3.org/2000/svg" viewBox="0 0 120 83.68"><path fill="#0097a4" d="M73,64.8c0.33,0,.65,0,0.94,0a6.1,6.1,0,0,0,2.29-.51,10.83,10.83,0,0,1,3.44-.86l1.52-.13a16.76,16.76,0,0,1,2.75,0c1.86,0.15,4.6.34,5.29,0.29h0.06c0.57-.06,2.47,0-0.07-0.94a23.1,23.1,0,0,0-7-.93H82l-0.92.05a16.13,16.13,0,0,0-4,.76,14.53,14.53,0,0,1-3.45,1,9.77,9.77,0,0,1-1.49,0,4.35,4.35,0,0,1-3.38-2.45c0-.17-0.64-2.81,1.78-3.61a3.92,3.92,0,0,1,1-.2,2.7,2.7,0,0,1,2.65,1.4,2,2,0,0,1,.17,1.67c-0.34.5-.33,0.59-0.61,0.61H73.74a1.3,1.3,0,0,1-1.07-.32,0.48,0.48,0,0,0-.28-0.12c-0.1,0-.19.09-0.2,0.37,0,0.53,1,.78,1.65.74a1,1,0,0,0,.34-0.07,2,2,0,0,0,1.08-1.89c0-1.1-.78-2.66-1.61-2.94a4.37,4.37,0,0,0-3.94.13A3.47,3.47,0,0,0,67.76,60,4.54,4.54,0,0,0,68.88,63,5.78,5.78,0,0,0,73,64.8m55.14-2.14a3.61,3.61,0,0,0-3.69,1.94l0.48,0.28s1.28-2.2,3.22-2.22M75.2,79.83l0.47,0.29s1.29-2.2,3.21-2.23a3.61,3.61,0,0,0-3.69,1.94M79.88,59c0.21,0.08.26,0.07-.55-1a21.43,21.43,0,0,0-2.78-2.49A18.51,18.51,0,0,1,72,45.9c-0.64-5.06.88-8.49,4.62-8.56s6.82,4.21,8.05,7.13A17.39,17.39,0,0,1,86,49.86a11.25,11.25,0,0,0,2.29,1.39c3.91-5.56,7.17-8.19,9.63-9.15S104,42.18,104,44.74s-1,4.35-4,7-9.54,4-11.53,4.22-0.95.44-.95,0.44a24.4,24.4,0,0,0,5.39-.51,34.42,34.42,0,0,0,7.43-2.62s5.88-3.32,6.33-7.9-2.36-5.59-2.89-6-3.31-1.37-7.57.44-5.28,4.32-5.62,4.22a0.77,0.77,0,0,1-.27-0.75,13.26,13.26,0,0,1,12.07-4.68c-8.19-2.22-13.22,5.17-13.22,5.17-0.49-2.47-3.77-8.82-8.26-9.72a9.48,9.48,0,0,0-9.49,3.58c-1.84,2.26-2,4.48-1.84,7.26s3.05,8.27,3.05,8.27c-0.76-.66-2.79-4.91-3.2-6.31A11.15,11.15,0,0,1,71,37c3-4.08,9.36-3.65,9.36-3.65a10,10,0,0,0-9.7,3.26c-2,2.16-3.71,7.18-.51,13.73A18.3,18.3,0,0,0,79.88,59m7.05-9.6c0.05,0.92-.05.73-0.31,0.55a0.61,0.61,0,0,1-.22-0.51c0-2.23-1.64-6.17-1.64-6.17,1.37,0.81,2.11,5.21,2.16,6.13M65.82,106c0.25,0,7.09.42,9.87-11.08,0,0,1.9,10.68,10.09,4.35,0,0-7,.7-4-20.93a4.92,4.92,0,0,0-5.46,2.2,10.59,10.59,0,0,0-13.08,6.21C59,96,61.61,102.54,61.93,103.08c0,0-3.29-4-.49-13.17s8.93-10.15,9.29-10.2c0,0-8.16-.33-10.57,13S65.58,106,65.82,106M76.66,95a16.05,16.05,0,0,0,1.1,3.79,5.85,5.85,0,0,1-1.48-3.14A1.47,1.47,0,0,1,76.66,95m-10,2.16a22.14,22.14,0,0,1,2.06-9s1.65-3.84,3.57-3.95S74,88.45,74,89.33a29.46,29.46,0,0,1-1.89,7.33c-0.94,2-1.75,3.37-2.82,3.92,0,0,1.78,1.62,3.83-5.14s1.1-10.37,1.1-10.37,1,0.83.46,5.34a26.72,26.72,0,0,1-1.84,7.48s-2,5.09-4.27,3c0,0-1.75.73-1.88-3.73m64.36-34a4.93,4.93,0,0,0-5.46,2.21,10.6,10.6,0,0,0-13.09,6.21c-4.27,9.25-1.64,15.77-1.32,16.31,0,0-3.3-4-.5-13.17s8.93-10.15,9.29-10.21c0,0-8.16-.34-10.57,13s5.42,13.31,5.67,13.33,7.09,0.42,9.86-11.08c0,0,1.9,10.68,10.1,4.35,0,0-7,.7-4-20.93m-7.16,12.06A26.76,26.76,0,0,1,122,82.67s-2,5.09-4.27,3c0,0-1.75.73-1.88-3.73a22.26,22.26,0,0,1,2.06-9s1.66-3.84,3.57-3.94,1.74,4.22,1.67,5.11a29.31,29.31,0,0,1-1.89,7.33c-0.94,2-1.75,3.37-2.82,3.92,0,0,1.78,1.62,3.83-5.13s1.09-10.37,1.09-10.37,1,0.83.46,5.34m1.64,5.2a1.44,1.44,0,0,1,.38-0.66A16,16,0,0,0,127,83.53a5.84,5.84,0,0,1-1.48-3.14M44.76,112.3c3.11-1.8,6.29-4.62,10.14-11a27.59,27.59,0,0,0,3.74-14,19.29,19.29,0,0,0-1.77-8.25,14.6,14.6,0,0,0-5.5-5.88c-1.32-.88-4-1.94-8.39-1.63H42.89c-4.49.33-6,.77-10.83,2.58A37.47,37.47,0,0,0,22,80.1a21.41,21.41,0,0,0-4.51,5.2,10.75,10.75,0,0,0-1.28,3.88c-0.36,1.73.84,4.5,0.84,4.5A8.19,8.19,0,0,1,16.1,87a14.41,14.41,0,0,1,3.72-5.95,33.87,33.87,0,0,1,10.2-7A37.44,37.44,0,0,1,41.72,71h0l-1,0a35.08,35.08,0,0,0-13.58,4.2,37.58,37.58,0,0,0-8.44,6.13A12.11,12.11,0,0,0,15,88.63a8.93,8.93,0,0,0,.7,4.12,4.62,4.62,0,0,0,2.42,2.4,1.94,1.94,0,0,0,.88.16A1.66,1.66,0,0,0,19.84,95a22.84,22.84,0,0,1,3.68-10.68,11.9,11.9,0,0,1,6.6-5C24.54,96,24,103.2,24,104s-0.08,3.72-.08,3.72c0,0.41.17,2.63,0.18,2.74a8.23,8.23,0,0,0,.56,2.56,6,6,0,0,0,1.67,2.28c0.11,0.09,1.24.7,1.48,0.82a3.21,3.21,0,0,0,1.87.68l0.32-.05a1.44,1.44,0,0,0,1.08-1.3,27.47,27.47,0,0,1,.16-3.33c0.2-2.35.9-8.8,1-9.78s2-10.31,2.17-11,1.46-6.56,1.57-7.22a16.61,16.61,0,0,1,.74-2.46,5.71,5.71,0,0,0,.56-2.3c0-1-1.68-2.17-1.68-2.17a8.66,8.66,0,0,1,3.19-.83,11.68,11.68,0,0,1,5.45,1,8.44,8.44,0,0,1,4.14,4.28c1.35,2.71,1.48,7.73,1.4,9.72a32.34,32.34,0,0,1-1.8,8.43,21,21,0,0,1-4.71,6.95,18.11,18.11,0,0,1-4.69,2.73A15.71,15.71,0,0,0,48.7,99.91a32.8,32.8,0,0,0,2-9.48,45.65,45.65,0,0,0-1.3-9,24,24,0,0,1,1.88,9.84A25.82,25.82,0,0,1,49.71,100a22.25,22.25,0,0,1-3.57,5.88A10.68,10.68,0,0,1,38.86,110l-0.42,0a9.54,9.54,0,0,1-4.81-.91,8,8,0,0,0,1.1,2.63,5.78,5.78,0,0,1-1.75-3l-0.63-.48s0.27,3.05,1.95,4.49a6,6,0,0,0,4.2,1.39l0.64,0a13,13,0,0,0,5.63-1.8M31.54,79.45S22.63,103.1,26.08,113c0,0-3.74-3.45.18-18.52,3.67-14.09,3.35-12.37,4.43-15.06a1,1,0,0,1,.61-0.31,0.33,0.33,0,0,1,.24.33m86.27,6.15-0.06,0Zm-12.22-3.46c0-.19-0.11-8.93-0.13-9.15a25.92,25.92,0,0,0-2-9.51,14.25,14.25,0,0,0-4.92-5.78,8.77,8.77,0,0,0-6.24-1.42A13,13,0,0,0,85,59.65a0.33,0.33,0,0,0,0,.46A0.37,0.37,0,0,0,85.48,60c0.1-.1.35-0.32,2.23-0.88s5.88,0,9,3.63,4.53,9.68,4.66,13.81a33.07,33.07,0,0,1-1.72,11.2C98.61,91,96.34,93,94.87,92.91s-2.57-1.77-2.59-3.56a20.21,20.21,0,0,1,1.65-8.55c1.71-4.52,4.49-4.92,4.49-4.92a6.78,6.78,0,0,0-1.34-3c-0.55-.87-1.31-0.68-2.57-0.24s-2.36,1-4.57,3.09-4.26,6.49-4.44,10.84a24.65,24.65,0,0,0,1.13,8.14c-2.71-4.59-2-11.4.56-16.35a13.82,13.82,0,0,1,7.26-6.49c-9,1.44-10.22,14.38-10.27,16.27S85,98.23,91.87,97.89a12.49,12.49,0,0,0,9.94-6.21c4.75,4.71,8.54-.19,8.54-0.19-5.6-1.54-4.78-9.15-4.76-9.34m-3.12-.49C102,88.54,100.12,91.33,97,93.87s-4-.5-4-0.5c1.28,0.72,1.6,1.33,4.37-.87s3.66-5.35,4.43-10.88-1.09-12.7-1.09-12.7c1.25,3.88,2.16,5.85,1.7,12.73" transform="translate(-15 -33.16)"/></svg>